Coordinates
version=1
nRows=4
nColumns=107
inDegrees=yes

Units are S.I. units (second, meters, Newtons, ...)
If the header above contains a line with 'inDegrees', this indicates whether rotational values are in degrees (yes) or radians (no).

endheader
time	sternoclavicular_r2	sternoclavicular_r3	unrotscap_r3	unrotscap_r2	acromioclavicular_r2	acromioclavicular_r3	acromioclavicular_r1	unrothum_r1	unrothum_r3	unrothum_r2	elv_angle	shoulder_elv	shoulder1_r2	shoulder_rot	elbow_flexion	pro_sup	deviation	flexion	proximal_distal_r1	proximal_distal_r3	cmc_flexion	cmc_abduction	mp_flexion	ip_flexion	mcp2_flexion	mcp2_abduction	pm2_flexion	md2_flexion	mcp3_flexion	mcp3_abduction	pm3_flexion	md3_flexion	mcp4_flexion	mcp4_abduction	pm4_flexion	md4_flexion	mcp5_flexion	mcp5_abduction	pm5_flexion	md5_flexion	bicpt_tx	bicpt_ty	bicpt_tz	bicpt2_tx	bicpt2_ty	bicpt2_tz	ptpt_tx	ptpt_ty	ptpt_tz	FCUpt_tx	FCUpt_ty	FCUpt_tz	EDCpt_tx	EDCpt_ty	EDCpt_tz	APLpt_tx	APLpt_ty	APLpt_tz	FPLpt_tx	FPLpt_ty	FPLpt_tz	FPLpt2_tx	FPLpt2_ty	FPLpt2_tz	PEC1pt2_tx	PEC1pt2_ty	PEC1pt2_tz	PEC1pt3_tx	PEC1pt3_ty	PEC1pt3_tz	PEC2pt2_tx	PEC2pt2_ty	PEC2pt2_tz	PEC2pt3_tx	PEC2pt3_ty	PEC2pt3_tz	PEC3pt2_tx	PEC3pt2_ty	PEC3pt2_tz	PEC3pt3_tx	PEC3pt3_ty	PEC3pt3_tz	DELT2pt2a_tx	DELT2pt2a_ty	DELT2pt2a_tz	DELT2pt2_tx	DELT2pt2_ty	DELT2pt2_tz	LAT1pt2_tx	LAT1pt2_ty	LAT1pt2_tz	LAT1pt3_tx	LAT1pt3_ty	LAT1pt3_tz	LAT2pt2_tx	LAT2pt2_ty	LAT2pt2_tz	LAT2pt3_tx	LAT2pt3_ty	LAT2pt3_tz	LAT3pt2_tx	LAT3pt2_ty	LAT3pt2_tz	LAT3pt3_tx	LAT3pt3_ty	LAT3pt3_tz
      0.00000000	     -0.30926415	      0.13098970	     -0.13098970	      0.30926415	     -0.06261970	      0.50607038	      0.22747515	     -0.22747515	     -0.50607038	      0.06261970	    101.53625982	     73.22103627	     -1.77214204	    -39.91190804	     33.04420254	     87.75527886	      0.38424562	     -0.41647674	      0.40062734	     -0.20823837	     42.64390310	    -20.18827212	     16.54634980	      9.69027673	     87.57650596	     12.25353962	     73.11392226	     84.35043927	     94.20266739	     -0.91615511	     77.86953721	     58.91699939	     84.42391409	    -13.44246057	     98.14970327	     44.87334938	     77.60189740	    -14.32598629	     98.22677565	      5.29225727	      0.00099300	     -0.03138737	     -0.00491005	      0.01405494	     -0.01917662	     -0.00077329	      0.00106588	     -0.06909274	     -0.00711916	      0.01294012	     -0.18217786	      0.00013330	     -0.01053061	      0.00367481	     -0.00081441	      0.00028086	      0.00011234	      0.00056172	      0.00035950	      0.00107850	      0.00060665	     -0.00000607	     -0.00005582	     -0.00006698	      0.00240002	      0.00842043	      0.00585769	     -0.00785093	      0.01895613	     -0.01797985	      0.00240002	      0.00842043	      0.00585769	      0.00052882	      0.01757306	     -0.00923399	      0.00383483	      0.00468249	      0.01568454	      0.00000000	      0.00716633	      0.00000000	     -0.00687465	     -0.03176982	     -0.00590530	      0.02261491	     -0.00110765	     -0.01286333	     -0.00085425	      0.01431879	     -0.00585769	      0.00235935	      0.02066462	     -0.01708492	     -0.00573565	      0.01240691	     -0.00524751	     -0.01195945	      0.02619688	     -0.02932912	     -0.02245447	      0.01387133	     -0.00703736	     -0.01488829	      0.03026472	     -0.03665123
      0.03333333	     -0.30855143	      0.13068782	     -0.13068782	      0.30855143	     -0.06247539	      0.50490411	      0.22695092	     -0.22695092	     -0.50490411	      0.06247539	    102.03464464	     73.05229332	     -1.78084050	    -41.75920083	     32.54137238	     86.28023759	      0.32233325	     -0.58511464	      0.35240991	     -0.29255732	     41.68266006	    -18.57514638	     17.16613039	      7.66705118	     87.28298933	     11.40815201	     72.55571790	     86.19959980	     93.85406542	     -1.12745020	     76.41989161	     58.55253632	     86.07991747	    -12.78977595	     96.62392421	     42.96823822	     79.07726286	    -13.90264718	    100.12591356	      5.21268253	      0.00097637	     -0.03132974	     -0.00490076	      0.01421085	     -0.01904002	     -0.00102799	      0.00117486	     -0.06902227	     -0.00700034	      0.01277021	     -0.18222823	      0.00009155	     -0.01035360	      0.00359340	     -0.00076624	      0.00031195	      0.00012478	      0.00062389	      0.00039929	      0.00119787	      0.00067380	     -0.00000796	     -0.00007682	     -0.00009219	      0.00239449	      0.00840102	      0.00584419	     -0.00783284	      0.01891244	     -0.01793841	      0.00239449	      0.00840102	      0.00584419	      0.00052760	      0.01753257	     -0.00921271	      0.00382825	      0.00467170	      0.01566768	      0.00000000	      0.00713314	      0.00000000	     -0.00685880	     -0.03169661	     -0.00587772	      0.02316609	     -0.00117521	     -0.01396664	     -0.00085228	      0.01428579	     -0.00584419	      0.00235391	      0.02061700	     -0.01704555	     -0.00572243	      0.01237832	     -0.00523542	     -0.01193188	      0.02613651	     -0.02926153	     -0.02240272	      0.01383936	     -0.00702114	     -0.01485398	      0.03019497	     -0.03656676
      0.06666667	     -0.30933063	      0.13101785	     -0.13101785	      0.30933063	     -0.06263316	      0.50617917	      0.22752405	     -0.22752405	     -0.50617917	      0.06263316	    101.44956881	     73.23677568	     -1.77062900	    -39.79570823	     32.99318527	     87.54733259	      0.38097117	     -0.42575512	      0.39823428	     -0.21287756	     42.59976584	    -19.99241128	     16.68833249	     10.20306504	     84.73218455	     12.56818038	     76.73382132	     85.13611379	     91.71702005	     -0.96634384	     79.94353800	     56.86446087	     86.36079703	    -13.57676533	     95.76133604	     41.57681439	     78.87201806	    -14.32099526	    101.80896135	      5.42383766	      0.00099131	     -0.03138152	     -0.00490910	      0.01407722	     -0.01916276	     -0.00080938	      0.00108124	     -0.06908281	     -0.00710241	      0.01291612	     -0.18218500	      0.00012732	     -0.01050566	      0.00366330	     -0.00080755	      0.00028381	      0.00011352	      0.00056761	      0.00036327	      0.00108982	      0.00061302	     -0.00000616	     -0.00005681	     -0.00006817	      0.00240054	      0.00842224	      0.00585895	     -0.00785262	      0.01896020	     -0.01798371	      0.00240054	      0.00842224	      0.00585895	      0.00052893	      0.01757684	     -0.00923598	      0.00383544	      0.00468350	      0.01568611	      0.00000000	      0.00716943	      0.00000000	     -0.00687613	     -0.03177665	     -0.00590788	      0.02257872	     -0.00110342	     -0.01279489	     -0.00085443	      0.01432187	     -0.00585895	      0.00235985	      0.02066906	     -0.01708860	     -0.00573689	      0.01240958	     -0.00524864	     -0.01196202	      0.02620251	     -0.02933542	     -0.02245930	      0.01387431	     -0.00703887	     -0.01489149	      0.03027123	     -0.03665911
      0.10000000	     -0.30863106	      0.13072155	     -0.13072155	      0.30863106	     -0.06249151	      0.50503441	      0.22700949	     -0.22700949	     -0.50503441	      0.06249151	    101.80365819	     73.07114605	     -1.77680903	    -40.94243423	     32.73485254	     87.44020111	      0.36891353	     -0.46778085	      0.38927109	     -0.23389042	     42.55447127	    -19.48508142	     17.08922823	      9.97794019	     83.91813125	     12.55817616	     77.62851517	     85.12407074	     90.86129376	     -1.24634215	     80.87966200	     56.62626982	     86.60753670	    -13.61815892	     96.26955717	     39.34284544	     80.42897956	    -14.27948414	    109.30146693	      5.67970252	      0.00098277	     -0.03135191	     -0.00490434	      0.01408866	     -0.01909258	     -0.00082795	      0.00108916	     -0.06907769	     -0.00709378	      0.01290377	     -0.18218867	      0.00012425	     -0.01049280	      0.00365737	     -0.00080402	      0.00029536	      0.00011814	      0.00059072	      0.00037806	      0.00113419	      0.00063798	     -0.00000626	     -0.00005782	     -0.00006938	      0.00239511	      0.00840319	      0.00584570	     -0.00783486	      0.01891732	     -0.01794304	      0.00239511	      0.00840319	      0.00584570	      0.00052774	      0.01753709	     -0.00921509	      0.00382899	      0.00467291	      0.01566957	      0.00000000	      0.00713684	      0.00000000	     -0.00686057	     -0.03170479	     -0.00588080	      0.02292802	     -0.00114527	     -0.01347537	     -0.00085250	      0.01428948	     -0.00584570	      0.00235452	      0.02062232	     -0.01704995	     -0.00572391	      0.01238151	     -0.00523677	     -0.01193496	      0.02614325	     -0.02926908	     -0.02240850	      0.01384293	     -0.00702295	     -0.01485781	      0.03020277	     -0.03657620
